<svg preserveAspectRatio="none" overflow="visible" style="display: block;" width="17.9168" height="15.417" viewBox="0 0 17.9168 15.417" fill="none" xmlns="http://www.w3.org/2000/svg">
<g id="elements">
<path id="Subtract" d="M13.6864 0C14.1249 0.000130794 14.5487 0.18969 14.8339 0.529297L17.5829 3.80371C18.0211 4.32583 18.029 5.07473 17.6005 5.60547L10.1239 14.8662C9.53089 15.6006 8.38589 15.6006 7.79286 14.8662L0.316302 5.60547C-0.11221 5.07473 -0.10433 4.32583 0.333881 3.80371L3.0829 0.529297C3.36806 0.189693 3.79191 0.000133495 4.23036 0H13.6864ZM7.29189 4.16699C6.94671 4.16699 6.66689 4.44681 6.66689 4.79199C6.66706 5.13702 6.94682 5.41699 7.29189 5.41699H10.6249C10.97 5.41699 11.2497 5.13702 11.2499 4.79199C11.2499 4.44681 10.9701 4.16699 10.6249 4.16699H7.29189Z" fill="#2876F5"/>
</g>
</svg>
