<svg preserveAspectRatio="none" overflow="visible" style="display: block;" width="15" height="15" viewBox="0 0 15 15" fill="none" xmlns="http://www.w3.org/2000/svg">
<g id="bloom" clip-path="url(#clip0_0_7)">
<path id="flower" fill-rule="evenodd" clip-rule="evenodd" d="M7.50041 0.75C8.35176 0.75 9.06164 1.51216 9.45061 2.79297C10.6335 2.16191 11.6733 2.12499 12.2748 2.72656C12.8763 3.32815 12.8376 4.36865 12.2074 5.5498C13.4883 5.93877 14.2504 6.64866 14.2504 7.5C14.2504 8.35134 13.4883 9.06123 12.2074 9.4502C12.8377 10.6314 12.8746 11.6737 12.2738 12.2744C11.6731 12.8751 10.6318 12.8381 9.45061 12.207C9.06164 13.4878 8.35176 14.25 7.50041 14.25C6.64907 14.25 5.93919 13.4878 5.55022 12.207C4.36649 12.8373 3.32673 12.8742 2.726 12.2734C2.12449 11.6719 2.16318 10.6314 2.79338 9.4502C1.51257 9.06123 0.750412 8.35134 0.750412 7.5C0.750412 6.64866 1.51257 5.93877 2.79338 5.5498C2.16316 4.3686 2.12625 3.32632 2.72697 2.72559C3.32771 2.12493 4.36906 2.16193 5.55022 2.79297C5.93919 1.51216 6.64907 0.75 7.50041 0.75ZM9.60979 5.8125C8.9108 5.8125 8.34416 6.37914 8.34416 7.07812C8.34416 7.77711 8.9108 8.34375 9.60979 8.34375C10.3088 8.34375 10.8754 7.77711 10.8754 7.07812C10.8754 6.37914 10.3088 5.8125 9.60979 5.8125ZM5.81291 4.96875C5.11393 4.96875 4.54729 5.53539 4.54729 6.23438C4.54729 6.93336 5.11393 7.5 5.81291 7.5C6.5119 7.5 7.07854 6.93336 7.07854 6.23438C7.07854 5.53539 6.5119 4.96875 5.81291 4.96875Z" fill="#9A3412"/>
</g>
<defs>
<clipPath id="clip0_0_7">
<rect width="15" height="15" fill="white"/>
</clipPath>
</defs>
</svg>
