<svg width="20" height="20" viewBox="0 0 20 20" fill="none" xmlns="http://www.w3.org/2000/svg">
<path opacity="0.4" d="M13.0088 11.6309C13.0825 11.4461 13.4052 11.4799 14.0499 11.5469C15.0493 11.6507 16.0277 11.9224 16.917 12.3623C16.9863 12.3965 17.0743 12.4373 17.1749 12.4844C17.6313 12.698 18.356 13.0376 18.8526 13.4414C19.1556 13.6878 19.5065 14.0589 19.5723 14.5576C19.6454 15.1132 19.3429 15.5845 18.8809 15.9502C18.1015 16.5671 17.1641 17.0614 15.959 17.0615C15.5345 17.0615 15.3216 17.0612 15.2413 16.9609C15.2364 16.9548 15.2339 16.9508 15.2295 16.9443C15.158 16.8382 15.2408 16.6141 15.4063 16.166C15.5453 15.7898 15.6071 15.3729 15.5538 14.9209C15.4385 13.9456 14.8268 13.2661 14.4102 12.8887C14.2252 12.721 14.0148 12.5595 13.7969 12.4092C13.2231 12.0133 12.9354 11.8156 13.0088 11.6309ZM13.5655 3.7959C15.4118 3.7959 16.9091 5.23242 16.9092 7.00488C16.9092 8.77742 15.4118 10.2148 13.5655 10.2148C13.0303 10.2148 12.5247 10.0935 12.0762 9.87891C11.8607 9.77572 11.7524 9.72422 11.7217 9.61133C11.6911 9.49848 11.7719 9.38422 11.9336 9.15625C12.5414 8.2994 12.8975 7.26424 12.8975 6.14941C12.8975 5.57434 12.8029 5.02012 12.628 4.50098C12.5394 4.23814 12.4952 4.10693 12.5577 4.00684C12.6203 3.90673 12.7385 3.88624 12.9756 3.8457C13.1671 3.81297 13.3642 3.79591 13.5655 3.7959Z" fill="#71717A"/>
<path d="M11.7001 12.6824L11.7002 12.6824C12.1925 12.9393 12.9649 13.3423 13.4933 13.8211C13.8223 14.1192 14.1626 14.5353 14.2251 15.0645C14.2927 15.637 14.018 16.154 13.5246 16.5892C12.6963 17.3196 11.6893 17.916 10.3831 17.916H4.26868C2.96251 17.916 1.95547 17.3196 1.12724 16.5892C0.63382 16.154 0.359156 15.637 0.426764 15.0645C0.489245 14.5353 0.829569 14.1192 1.15856 13.8211C1.68694 13.3423 2.45927 12.9393 2.95167 12.6824L2.95167 12.6824L2.95168 12.6824C3.06131 12.6252 3.15706 12.5753 3.23315 12.5333C5.7397 11.1517 8.91212 11.1517 11.4187 12.5333C11.4947 12.5753 11.5905 12.6252 11.7001 12.6824Z" fill="#71717A"/>
<path d="M3.09082 6.14832C3.09082 3.90311 4.98672 2.08301 7.32543 2.08301C9.66414 2.08301 11.56 3.90311 11.56 6.14832C11.56 8.39354 9.66414 10.2136 7.32543 10.2136C4.98672 10.2136 3.09082 8.39354 3.09082 6.14832Z" fill="#71717A"/>
</svg>
